<svg id="bannersvg" height="67" version="1.1" width="1280" xmlns:xlink="http://www.w3.org/1999/xlink" xmlns="http://www.w3.org/2000/svg" style="overflow: hidden; position: absolute; left: 0px; top: 0px;z-index:5">
<desc>Created with Raphaël 2.0.1</desc>
<path style="" fill="#000000" stroke="#00ff32" d="M-1,-1H378V52L358,72H-21" fill-opacity="0.65" stroke-opacity="0.75" transform="matrix(1,0,0,0.9054,0,0)" stroke-width="1"/>
<a xlink:href="main.html">
	<path style="cursor: pointer;" fill="#00ff32" stroke="none" d="M7,7L27,7V18H19V28H7V24H15V18H7V14H15M19,14H23V11H19V14M15,14V11H7V7" fill-opacity="0.75" transform="matrix(2,0,0,2,-7,-7)" stroke-width="0.5"/>
</a>
<a xlink:href="main.html">
	<text style="text-anchor: start; font: 38px loaded;" x="87" y="27" text-anchor="start" font="10px Arial" stroke="none" fill="#00ff32" font-family="loaded" font-size="38px" fill-opacity="0.75" transform="matrix(1,0,0,1,0,0)">
		<tspan dy="15.5">JackPoint</tspan>
	</text>
</a>
<path style="" fill="none" stroke="#00ff32" d="M379,33H799V24L819,3H1279V53L1259,73H799V33" stroke-opacity="0.75" transform="matrix(1,0,0,0.9054,0,0)" stroke-width="1"/>
<path style="" fill="#00ff32" stroke="none" d="M803,34V26L822,7H1274V52L1257,69H803Z" fill-opacity="0.75" transform="matrix(1,0,0,0.9054,0,0)" stroke-width="1"/>
<a xlink:href="#">
	<path style="cursor: pointer;" fill="#000000" stroke="none" d="M17.41,20.395l-0.778-2.723c0.228-0.2,0.442-0.414,0.644-0.643l2.721,0.778c0.287-0.418,0.534-0.862,0.755-1.323l-2.025-1.96c0.097-0.288,0.181-0.581,0.241-0.883l2.729-0.684c0.02-0.252,0.039-0.505,0.039-0.763s-0.02-0.51-0.039-0.762l-2.729-0.684c-0.061-0.302-0.145-0.595-0.241-0.883l2.026-1.96c-0.222-0.46-0.469-0.905-0.756-1.323l-2.721,0.777c-0.201-0.228-0.416-0.442-0.644-0.643l0.778-2.722c-0.418-0.286-0.863-0.534-1.324-0.755l-1.96,2.026c-0.287-0.097-0.581-0.18-0.883-0.241l-0.683-2.73c-0.253-0.019-0.505-0.039-0.763-0.039s-0.51,0.02-0.762,0.039l-0.684,2.73c-0.302,0.061-0.595,0.144-0.883,0.241l-1.96-2.026C7.048,3.463,6.604,3.71,6.186,3.997l0.778,2.722C6.736,6.919,6.521,7.134,6.321,7.361L3.599,6.583C3.312,7.001,3.065,7.446,2.844,7.907l2.026,1.96c-0.096,0.288-0.18,0.581-0.241,0.883l-2.73,0.684c-0.019,0.252-0.039,0.505-0.039,0.762s0.02,0.51,0.039,0.763l2.73,0.684c0.061,0.302,0.145,0.595,0.241,0.883l-2.026,1.96c0.221,0.46,0.468,0.905,0.755,1.323l2.722-0.778c0.2,0.229,0.415,0.442,0.643,0.643l-0.778,2.723c0.418,0.286,0.863,0.533,1.323,0.755l1.96-2.026c0.288,0.097,0.581,0.181,0.883,0.241l0.684,2.729c0.252,0.02,0.505,0.039,0.763,0.039s0.51-0.02,0.763-0.039l0.683-2.729c0.302-0.061,0.596-0.145,0.883-0.241l1.96,2.026C16.547,20.928,16.992,20.681,17.41,20.395zM11.798,15.594c-1.877,0-3.399-1.522-3.399-3.399s1.522-3.398,3.399-3.398s3.398,1.521,3.398,3.398S13.675,15.594,11.798,15.594zM27.29,22.699c0.019-0.547-0.06-1.104-0.23-1.654l1.244-1.773c-0.188-0.35-0.4-0.682-0.641-0.984l-2.122,0.445c-0.428-0.364-0.915-0.648-1.436-0.851l-0.611-2.079c-0.386-0.068-0.777-0.105-1.173-0.106l-0.974,1.936c-0.279,0.054-0.558,0.128-0.832,0.233c-0.257,0.098-0.497,0.22-0.727,0.353L17.782,17.4c-0.297,0.262-0.568,0.545-0.813,0.852l0.907,1.968c-0.259,0.495-0.437,1.028-0.519,1.585l-1.891,1.06c0.019,0.388,0.076,0.776,0.164,1.165l2.104,0.519c0.231,0.524,0.541,0.993,0.916,1.393l-0.352,2.138c0.32,0.23,0.66,0.428,1.013,0.6l1.715-1.32c0.536,0.141,1.097,0.195,1.662,0.15l1.452,1.607c0.2-0.057,0.399-0.118,0.596-0.193c0.175-0.066,0.34-0.144,0.505-0.223l0.037-2.165c0.455-0.339,0.843-0.747,1.152-1.206l2.161-0.134c0.152-0.359,0.279-0.732,0.368-1.115L27.29,22.699zM23.127,24.706c-1.201,0.458-2.545-0.144-3.004-1.345s0.143-2.546,1.344-3.005c1.201-0.458,2.547,0.144,3.006,1.345C24.931,22.902,24.328,24.247,23.127,24.706z" transform="matrix(1.6,0,0,1.6,1070,9.0541)" stroke-width="0.625"/>
</a>
<a xlink:href="#">
	<text style="text-anchor: start; font: 12px DX; cursor: pointer;" x="1110" y="20" text-anchor="start" font="10px Arial" stroke="none" fill="#000000" font-family="DX" font-size="12px" transform="matrix(1,0,0,1,0,0)" stroke-width="1">
		<tspan dy="5">Settings</tspan>
	</text>
</a>
<a xlink:href="#">
	<path style="cursor: pointer;" fill="#000000" stroke="none" d="M25.542,8.354c-1.47-1.766-2.896-2.617-3.025-2.695c-0.954-0.565-2.181-0.241-2.739,0.724c-0.556,0.961-0.24,2.194,0.705,2.763c0,0,0.001,0,0.002,0.001c0.001,0,0.002,0.001,0.003,0.002c0.001,0,0.003,0.001,0.004,0.001c0.102,0.062,1.124,0.729,2.08,1.925c1.003,1.261,1.933,3.017,1.937,5.438c-0.001,2.519-1.005,4.783-2.64,6.438c-1.637,1.652-3.877,2.668-6.368,2.669c-2.491-0.001-4.731-1.017-6.369-2.669c-1.635-1.654-2.639-3.919-2.64-6.438c0.005-2.499,0.995-4.292,2.035-5.558c0.517-0.625,1.043-1.098,1.425-1.401c0.191-0.152,0.346-0.263,0.445-0.329c0.049-0.034,0.085-0.058,0.104-0.069c0.005-0.004,0.009-0.006,0.012-0.008s0.004-0.002,0.004-0.002l0,0c0.946-0.567,1.262-1.802,0.705-2.763c-0.559-0.965-1.785-1.288-2.739-0.724c-0.128,0.079-1.555,0.93-3.024,2.696c-1.462,1.751-2.974,4.511-2.97,8.157C2.49,23.775,8.315,29.664,15.5,29.667c7.186-0.003,13.01-5.892,13.012-13.155C28.516,12.864,27.005,10.105,25.542,8.354zM15.5,17.523c1.105,0,2.002-0.907,2.002-2.023h-0.001V3.357c0-1.118-0.896-2.024-2.001-2.024s-2.002,0.906-2.002,2.024V15.5C13.498,16.616,14.395,17.523,15.5,17.523z" transform="matrix(1.4,0,0,1.4,1170,13.5811)" stroke-width="0.7142857142857143"/>
</a>
<a xlink:href="#">
	<text style="text-anchor: start; font: 12px DX; cursor: pointer;" x="1215" y="20" text-anchor="start" font="10px Arial" stroke="none" fill="#000000" font-family="DX" font-size="12px" transform="matrix(1,0,0,1,0,0)" stroke-width="1">
		<tspan dy="5">Logout</tspan>
	</text>
</a>
</svg>