<svg height="67" version="1.1" width="1280" xmlns:xlink="http://www.w3.org/1999/xlink" xmlns="http://www.w3.org/2000/svg" style="overflow: hidden; position: absolute; left: 0px; top: 0px;">
<desc>Created with Raphaël 2.0.1</desc>
<path style="" fill="#000000" stroke="#00ff32" d="M-1,-1H378V52L358,72H-21" fill-opacity="0.65" stroke-opacity="0.75" transform="matrix(1,0,0,0.9054,0,0)" stroke-width="1"/>
<a xlink:href="main.html">
	<path style="cursor: pointer;" fill="#00ff32" stroke="none" d="M7,7L27,7V18H19V28H7V24H15V18H7V14H15M19,14H23V11H19V14M15,14V11H7V7" fill-opacity="0.75" transform="matrix(2,0,0,2,-7,-7)" stroke-width="0.5"/>
</a>
<a xlink:href="main.html">
	<text style="text-anchor: start; font: 38px loaded;" x="87" y="27" text-anchor="start" font="10px Arial" stroke="none" fill="#00ff32" font-family="loaded" font-size="38px" fill-opacity="0.75" transform="matrix(1,0,0,1,0,0)">
		<tspan dy="15.5">JackPoint</tspan>
	</text>
</a>
<path style="" fill="none" stroke="#00ff32" d="M379,33H799V24L819,3H1279V53L1259,73H799V33" stroke-opacity="0.75" transform="matrix(1,0,0,0.9054,0,0)" stroke-width="1"/>
<path style="" fill="#00ff32" stroke="none" d="M803,34V26L822,7H1274V52L1257,69H803Z" fill-opacity="0.75" transform="matrix(1,0,0,0.9054,0,0)" stroke-width="1"/>
<path style="cursor: pointer;" fill="#000000" stroke="none" d="M17.41,20.395L16.632,17.672C16.860000000000003,17.472,17.074,17.258,17.276,17.029L19.997,17.807C20.284,17.389,20.531,16.945,20.752,16.483999999999998L18.727,14.523999999999997C18.824,14.235999999999997,18.908,13.942999999999998,18.968,13.640999999999998L21.697,12.956999999999999C21.717,12.704999999999998,21.736,12.451999999999998,21.736,12.193999999999999S21.716,11.684,21.697,11.431999999999999L18.968,10.748C18.907,10.446,18.823,10.152999999999999,18.727,9.864999999999998L20.753,7.9049999999999985C20.531,...9,28.999,24.736,28.923999999999996C24.911,28.857999999999997,25.076,28.779999999999998,25.241,28.700999999999997L25.278,26.535999999999998C25.732999999999997,26.197,26.121,25.788999999999998,26.43,25.33L28.591,25.195999999999998C28.743000000000002,24.836999999999996,28.87,24.464,28.959,24.081L27.29,22.699ZM23.127,24.706C21.926,25.163999999999998,20.582,24.562,20.122999999999998,23.361S20.266,20.815,21.467,20.356C22.668,19.898000000000003,24.014,20.5,24.473,21.701C24.931,22.902,24.328,24.247,23.127,24.706Z" transform="matrix(1.6,0,0,1.6,1070,9.0541)" stroke-width="0.625"/>
<text style="text-anchor: start; font: 12px DX; cursor: pointer;" x="1110" y="20" text-anchor="start" font="10px Arial" stroke="none" fill="#000000" font-family="DX" font-size="12px" transform="matrix(1,0,0,1,0,0)" stroke-width="1">
	<tspan dy="5">Settings</tspan>
</text>
<path style="cursor: pointer;" fill="#000000" stroke="none" d="M25.542,8.354C24.072000000000003,6.587999999999999,22.646,5.736999999999999,22.517000000000003,5.658999999999999C21.563000000000002,5.093999999999999,20.336000000000002,5.417999999999999,19.778000000000002,6.382999999999999C19.222,7.343999999999999,19.538000000000004,8.576999999999998,20.483,9.145999999999999C20.483,9.145999999999999,20.484,9.145999999999999,20.485,9.146999999999998C20.486,9.146999999999998,20.487,9.147999999999998,20.488,9.149C20.489,9.149,20.491,9.149999999999999,20.492,9.14999999999999...9996,2.485000000000004,12.865999999999996,2.489000000000004,16.511999999999997C2.49,23.775,8.315,29.664,15.5,29.667C22.686,29.664,28.509999999999998,23.775000000000002,28.512,16.512C28.516,12.864,27.005,10.105,25.542,8.354ZM15.5,17.523C16.605,17.523,17.502,16.616,17.502,15.5H17.500999999999998V3.357C17.500999999999998,2.239,16.604999999999997,1.3330000000000002,15.499999999999998,1.3330000000000002S13.497999999999998,2.2390000000000003,13.497999999999998,3.357V15.5C13.498,16.616,14.395,17.523,15.5,17.523Z" transform="matrix(1.4,0,0,1.4,1170,13.5811)" stroke-width="0.7142857142857143"/>
<text style="text-anchor: start; font: 12px DX; cursor: pointer;" x="1215" y="20" text-anchor="start" font="10px Arial" stroke="none" fill="#000000" font-family="DX" font-size="12px" transform="matrix(1,0,0,1,0,0)" stroke-width="1">
	<tspan dy="5">Logout</tspan>
</text>
</svg>