<?xml version="1.0" encoding="UTF-8" standalone="no"?>
<!-- Created with Inkscape (http://www.inkscape.org/) -->

<svg
   xmlns:dc="http://purl.org/dc/elements/1.1/"
   xmlns:cc="http://creativecommons.org/ns#"
   xmlns:rdf="http://www.w3.org/1999/02/22-rdf-syntax-ns#"
   xmlns:svg="http://www.w3.org/2000/svg"
   xmlns="http://www.w3.org/2000/svg"
   xmlns:sodipodi="http://sodipodi.sourceforge.net/DTD/sodipodi-0.dtd"
   xmlns:inkscape="http://www.inkscape.org/namespaces/inkscape"
   width="210mm"
   height="297mm"
   id="svg2"
   version="1.1"
   inkscape:version="0.48.2 r9819"
   sodipodi:docname="suggestionUI.svg">
  <defs
     id="defs4" />
  <sodipodi:namedview
     id="base"
     pagecolor="#ffffff"
     bordercolor="#666666"
     borderopacity="1.0"
     inkscape:pageopacity="0.0"
     inkscape:pageshadow="2"
     inkscape:zoom="0.35"
     inkscape:cx="375"
     inkscape:cy="520"
     inkscape:document-units="px"
     inkscape:current-layer="layer1"
     showgrid="false"
     inkscape:window-width="1366"
     inkscape:window-height="716"
     inkscape:window-x="-8"
     inkscape:window-y="22"
     inkscape:window-maximized="1" />
  <metadata
     id="metadata7">
    <rdf:RDF>
      <cc:Work
         rdf:about="">
        <dc:format>image/svg+xml</dc:format>
        <dc:type
           rdf:resource="http://purl.org/dc/dcmitype/StillImage" />
        <dc:title></dc:title>
      </cc:Work>
    </rdf:RDF>
  </metadata>
  <g
     inkscape:label="Calque 1"
     inkscape:groupmode="layer"
     id="layer1">
    <polygon
       id="polygon2997"
       points="183,2.230855 543,2.230855 723,314 723,314 543,625.76914 183,625.76914 3,314 "
       style="fill:#ffffff;stroke:#000000;stroke-width:4"
       transform="matrix(0.27624309,0,0,0.27624309,86.295184,58.428724)" />
    <polygon
       id="polygon2997-1"
       points="3,314 183,2.230855 543,2.230855 723,314 723,314 543,625.76914 183,625.76914 "
       style="fill:#ffffff;stroke:#000000;stroke-width:4"
       transform="matrix(0.27624309,0,0,0.27624309,228.29519,145.62185)" />
    <polygon
       id="polygon2997-7"
       points="3,314 183,2.230855 543,2.230855 723,314 723,314 543,625.76914 183,625.76914 "
       style="fill:#ffffff;stroke:#000000;stroke-width:4"
       transform="matrix(0.27624309,0,0,0.27624309,76.866616,231.33614)" />
    <polygon
       id="polygon2997-4"
       points="183,2.230855 543,2.230855 723,314 723,314 543,625.76914 183,625.76914 3,314 "
       style="fill:#ffffff;stroke:#000000;stroke-width:4"
       transform="matrix(0.27624309,0,0,0.27624309,76.866614,402.76474)" />
    <polygon
       id="polygon2997-0"
       points="3,314 183,2.230855 543,2.230855 723,314 723,314 543,625.76914 183,625.76914 "
       style="fill:#ffffff;stroke:#000000;stroke-width:4"
       transform="matrix(0.27624309,0,0,0.27624309,225.43804,317.05042)" />
    <polygon
       id="polygon2997-9"
       points="543,2.230855 723,314 723,314 543,625.76914 183,625.76914 3,314 183,2.230855 "
       style="fill:#ffffff;stroke:#000000;stroke-width:4"
       transform="matrix(0.27624309,0,0,0.27624309,219.72376,488.479)" />
    <text
       xml:space="preserve"
       style="font-size:40px;font-style:normal;font-weight:normal;line-height:125%;letter-spacing:0px;word-spacing:0px;fill:#000000;fill-opacity:1;stroke:none;font-family:Sans"
       x="162.85715"
       y="152.36218"
       id="text3052"
       sodipodi:linespacing="125%"><tspan
         sodipodi:role="line"
         id="tspan3054"
         x="162.85715"
         y="152.36218">MAIN</tspan></text>
    <text
       xml:space="preserve"
       style="font-size:40px;font-style:normal;font-weight:normal;line-height:125%;letter-spacing:0px;word-spacing:0px;fill:#000000;fill-opacity:1;stroke:none;font-family:Sans"
       x="157.14285"
       y="318.07648"
       id="text3056"
       sodipodi:linespacing="125%"><tspan
         sodipodi:role="line"
         id="tspan3058"
         x="157.14285"
         y="318.07648">HELP</tspan><tspan
         sodipodi:role="line"
         x="157.14285"
         y="368.07648"
         id="tspan3060" /></text>
  </g>
</svg>
